<svg id="Layer_1" data-name="Layer 1" xmlns="http://www.w3.org/2000/svg" viewBox="0 0 1080 1080"><defs><style>.cls-1{fill:#0085e8;}</style></defs><title>Pitch Deck</title><path class="cls-1" d="M183.65,618.75h-48V463.8h48Z"/><path class="cls-1" d="M303.16,525.41l-23.39,29.88H202.41l23.39-29.88Z"/><path class="cls-1" d="M509.07,618.75H461.36V559H369.18v59.76H321V463.8h48.18v54.89h92.18V463.8h47.71Z"/><path class="cls-1" d="M604,618.75l29-39.84h53.38q7.53,0,13.09.47c-2.16-2.79-4.68-6.29-7.53-10.54s-5.59-8.22-8.22-11.93l-27.8-41L583.19,618.75H526.44l99.38-140.13a53.67,53.67,0,0,1,12.27-12.05q7.39-5.32,18.76-5.32,10.89,0,18.19,5a47.36,47.36,0,0,1,12.38,12.39l96.83,140.13Z"/><path class="cls-1" d="M944.3,463.8l-31,40.3H857.89V618.75H810V504.1H737.23l31-40.3Z"/></svg>